<?xml version="1.0" standalone="no"?>
<!DOCTYPE svg PUBLIC "-//W3C//DTD SVG 20010904//EN"
 "http://www.w3.org/TR/2001/REC-SVG-20010904/DTD/svg10.dtd">
<svg version="1.0" xmlns="http://www.w3.org/2000/svg"
 width="728.000000pt" height="800.000000pt" viewBox="0 0 728.000000 800.000000"
 preserveAspectRatio="xMidYMid meet">
<metadata>
Created by potrace 1.15, written by Peter Selinger 2001-2017
</metadata>
<g transform="translate(0.000000,800.000000) scale(0.100000,-0.100000)"
fill="#000000" stroke="none">
<path d="M3316 6780 c-76 -23 -102 -102 -50 -154 15 -14 31 -26 35 -26 24 0
-2 -33 -132 -165 -129 -131 -198 -185 -238 -185 -6 0 -23 11 -36 25 -20 19
-25 34 -25 77 0 83 6 95 51 102 182 29 314 153 238 222 -28 25 -124 25 -196 1
-84 -29 -135 -76 -221 -205 -43 -64 -96 -142 -117 -172 l-39 -55 -68 0 c-37 0
-68 2 -68 4 0 2 16 45 35 97 19 51 35 104 35 118 0 30 -29 51 -82 60 -42 8
-88 54 -88 89 0 12 11 40 25 62 33 54 32 65 -7 65 -49 0 -110 -39 -131 -83
-29 -58 -7 -108 68 -152 16 -10 9 -29 -75 -203 l-93 -192 -32 6 c-19 3 -47 -1
-70 -10 -37 -16 -37 -16 -32 7 54 253 52 265 -57 282 -51 8 -96 52 -96 95 0
17 7 47 15 67 28 67 -2 82 -72 37 -70 -46 -92 -114 -57 -174 18 -29 62 -60 88
-60 23 0 21 -16 -29 -210 -49 -189 -71 -243 -97 -248 -22 -4 -25 40 -15 238
10 180 6 214 -29 237 -31 20 -102 7 -95 -17 12 -43 15 -130 9 -260 -12 -227
11 -310 87 -310 71 0 90 39 169 349 29 113 57 206 63 208 6 2 19 -4 28 -13 23
-23 16 -86 -25 -249 -16 -66 -30 -125 -30 -131 0 -15 56 -38 75 -30 8 3 21 18
27 33 23 53 59 100 85 112 22 10 29 9 45 -6 18 -18 17 -22 -31 -131 -102 -229
-142 -403 -107 -469 71 -139 203 -70 252 133 25 99 25 309 0 389 -10 32 -24
68 -31 78 -12 18 -7 33 47 141 34 66 76 157 94 201 34 83 50 97 78 69 25 -25
19 -45 -92 -317 -14 -35 -14 -38 4 -52 36 -27 62 -18 101 36 37 52 89 84 117
73 28 -11 18 -40 -45 -136 -98 -151 -160 -287 -167 -363 -5 -63 -4 -65 31
-100 38 -38 60 -42 110 -21 120 50 222 380 173 560 l-17 63 58 83 58 83 6 -37
c19 -116 140 -162 265 -101 58 28 188 148 297 274 79 90 107 44 40 -64 -32
-50 -38 -69 -38 -113 0 -44 4 -57 24 -73 48 -39 106 -18 230 83 72 59 76 60
39 6 -35 -50 -17 -98 44 -113 31 -8 102 21 192 79 31 20 57 36 59 36 1 0 2
-18 2 -40 2 -91 120 -147 222 -105 19 8 37 15 39 15 2 0 4 -7 4 -15 0 -8 9
-24 20 -35 36 -36 100 -27 312 45 105 36 193 67 196 70 3 3 2 8 -2 12 -4 4
-85 -18 -179 -50 -175 -59 -237 -70 -237 -42 0 20 65 66 134 96 31 13 56 27
56 30 0 3 -11 11 -24 19 -20 10 -23 18 -19 45 7 44 -10 71 -60 97 -36 20 -57
23 -152 23 -126 0 -165 -13 -248 -82 -61 -51 -215 -143 -239 -143 -37 0 -16
35 81 134 54 56 104 112 111 125 11 22 10 27 -14 48 -39 33 -68 30 -90 -11
-10 -19 -26 -36 -35 -39 -9 -3 -79 -55 -155 -117 -149 -119 -180 -138 -202
-119 -19 16 -11 39 43 127 24 39 43 80 41 90 -2 9 -26 29 -53 44 -89 48 -101
96 -35 149 31 25 37 35 29 46 -13 14 -68 16 -113 3z m-190 -134 c10 -25 -26
-76 -74 -107 -45 -28 -141 -64 -149 -55 -7 6 26 67 58 107 16 20 43 44 61 52
41 21 97 22 104 3z m1186 -183 c10 -9 18 -22 18 -29 0 -15 -69 -74 -88 -74 -8
0 -11 -7 -8 -18 6 -19 -10 -31 -113 -83 -59 -30 -119 -37 -139 -17 -17 17 -15
69 5 98 47 71 115 122 188 141 43 11 115 2 137 -18z m-1787 -451 c-23 -104
-72 -256 -101 -314 -27 -54 -60 -71 -81 -42 -27 36 17 163 108 314 28 47 59
97 68 112 23 40 25 18 6 -70z m-415 -183 c-22 -236 -53 -362 -91 -374 -75 -24
-62 132 32 367 46 116 59 142 65 135 3 -3 0 -60 -6 -128z"/>
<path d="M1020 6713 c-236 -63 -486 -266 -593 -479 -59 -117 -72 -178 -72
-334 0 -128 3 -150 22 -193 17 -36 31 -51 59 -63 36 -15 88 -12 99 6 3 5 -8
33 -24 62 -131 235 7 612 297 807 193 130 391 182 492 128 64 -34 82 -74 77
-172 -8 -146 -106 -325 -266 -485 l-86 -85 -8 50 c-20 129 -27 152 -62 185
-65 63 -158 34 -230 -72 -91 -136 -98 -299 -14 -360 34 -25 110 -25 175 0 l52
19 6 -91 c14 -173 51 -299 104 -348 48 -45 130 -61 167 -34 19 14 18 16 -27
56 -79 69 -136 221 -154 405 l-6 71 38 29 c22 16 74 63 117 104 180 173 277
362 277 536 0 88 -15 136 -59 186 -55 66 -117 89 -231 88 -52 0 -120 -7 -150
-16z m-126 -625 c19 -30 33 -88 41 -170 l7 -67 -77 -50 c-89 -58 -126 -65
-151 -26 -22 34 -15 126 15 187 29 60 107 148 132 148 10 0 25 -10 33 -22z"/>
<path d="M1548 6624 c-52 -28 -46 -104 9 -125 20 -7 39 -7 65 0 73 22 87 63
39 112 -33 33 -70 37 -113 13z"/>
<path d="M3345 6014 c-216 -24 -448 -110 -633 -236 -118 -81 -305 -273 -391
-402 -216 -326 -314 -706 -282 -1102 18 -226 70 -422 165 -620 49 -101 139
-246 198 -318 l24 -28 17 25 c16 25 152 133 196 156 11 6 41 11 67 11 l47 0
-23 -25 c-34 -36 -16 -53 38 -37 55 17 60 16 76 -17 12 -23 24 -29 61 -34 25
-4 60 -14 78 -24 17 -9 42 -18 55 -19 25 -3 125 -56 155 -82 9 -8 17 -23 17
-33 0 -12 16 -27 41 -40 23 -11 44 -29 46 -40 3 -11 24 -30 47 -42 33 -17 37
-22 21 -25 -20 -3 -182 76 -392 191 -91 50 -104 55 -127 44 -30 -14 -34 -45
-8 -53 110 -37 133 -53 185 -133 15 -23 37 -38 72 -51 328 -117 355 -128 366
-158 8 -21 14 -24 40 -18 18 3 40 6 50 6 18 0 18 1 -1 37 -33 62 -20 133 24
133 32 0 76 -73 76 -124 0 -43 1 -43 106 -16 97 25 165 50 245 91 l61 30 -89
92 c-50 51 -93 104 -96 119 -4 16 -22 35 -44 48 -21 13 -59 46 -85 74 -25 28
-49 48 -53 44 -4 -4 -7 -75 -6 -157 0 -83 0 -151 -2 -151 -7 1 -427 422 -427
428 0 15 -54 58 -100 81 -67 34 -87 57 -109 125 -25 77 -26 231 -1 231 9 0 17
-12 20 -30 4 -20 8 -26 13 -17 5 7 6 26 2 42 -5 23 -3 30 8 30 9 0 17 -6 20
-12 2 -7 7 -10 11 -7 4 4 -18 42 -49 84 -31 43 -68 104 -83 136 -15 32 -35 60
-44 62 -17 5 -61 67 -53 76 3 2 16 -6 30 -19 30 -29 31 -22 5 31 -36 70 -72
209 -65 251 5 28 1 50 -13 81 -25 50 -52 179 -45 207 3 11 0 27 -7 35 -10 12
-9 16 4 21 21 8 48 63 40 86 -3 10 -1 18 5 18 6 0 11 -5 11 -10 0 -7 6 -7 20
0 11 6 20 8 20 5 0 -3 24 10 53 29 28 19 66 38 82 42 17 4 48 20 69 35 22 16
50 29 63 29 27 0 88 36 122 74 18 19 34 26 61 26 20 0 58 11 84 25 41 22 51
23 97 15 69 -13 69 -13 69 11 0 26 24 20 28 -7 2 -10 18 -35 36 -54 18 -19 50
-61 71 -92 21 -32 41 -58 45 -58 4 0 7 -18 7 -40 0 -44 37 -110 83 -147 22
-18 28 -31 28 -68 1 -25 6 -54 12 -64 5 -11 10 -37 10 -58 0 -21 11 -92 25
-158 32 -155 32 -253 1 -378 -14 -53 -34 -117 -45 -143 -26 -58 -26 -89 -1
-139 12 -23 20 -59 20 -88 0 -38 6 -56 25 -79 14 -16 25 -36 25 -44 0 -8 4
-14 10 -14 5 0 7 7 4 15 -9 23 9 18 24 -6 l14 -21 14 21 c9 12 30 28 47 37 40
21 47 32 41 64 -4 20 2 31 30 52 l34 28 103 -113 c108 -118 146 -153 271 -248
l77 -59 25 42 c95 163 179 394 210 578 34 203 30 463 -9 655 -25 119 -89 308
-141 415 -78 162 -165 283 -303 421 -217 218 -442 341 -721 395 -77 15 -284
25 -355 18z m321 -109 c407 -71 754 -337 963 -736 68 -131 133 -314 157 -444
22 -123 30 -394 15 -520 -7 -55 -24 -143 -37 -195 -26 -104 -93 -290 -104
-290 -4 0 -12 18 -19 41 -7 22 -26 77 -43 121 -37 98 -116 188 -203 232 -43
21 -55 32 -50 45 12 29 10 33 -24 52 -19 10 -38 25 -43 32 -8 15 31 75 86 130
26 26 28 32 14 35 -10 2 -18 12 -18 22 0 25 -18 36 -26 16 -9 -24 -23 -19 -30
9 -8 33 -22 32 -26 -2 l-4 -28 -12 28 c-7 16 -12 47 -12 70 -1 52 -24 153 -40
173 -7 7 -18 14 -25 14 -7 0 -25 28 -40 63 -31 69 -135 235 -149 236 -5 1 -6
-12 -2 -29 3 -17 1 -30 -4 -30 -20 0 -41 79 -49 180 -5 62 -19 146 -36 205
-25 90 -31 102 -59 115 -17 9 -36 29 -43 48 l-13 33 25 -17 c30 -20 31 -15 4
37 -17 34 -23 38 -35 28 -12 -10 -16 -8 -21 10 -5 20 -7 21 -24 6 -37 -34 -80
6 -44 41 19 19 4 44 -26 44 -18 0 -103 52 -114 71 -17 26 -125 -22 -125 -57 0
-26 -43 -37 -96 -26 -27 6 -50 9 -52 7 -2 -2 8 -21 22 -44 30 -47 32 -55 10
-47 -9 4 -27 0 -39 -8 -27 -18 -65 -3 -80 32 -5 12 -14 22 -19 22 -9 0 -7 -10
15 -70 6 -19 14 -41 16 -49 3 -11 16 -12 58 -7 54 6 121 35 171 75 25 20 85
30 83 14 -1 -16 -90 -73 -112 -73 -13 0 -36 -14 -53 -31 -34 -36 -206 -125
-319 -165 -44 -15 -91 -36 -105 -45 -14 -10 -38 -21 -54 -25 -24 -6 -28 -4
-23 9 4 10 0 18 -11 21 -51 13 -71 15 -77 6 -3 -5 -19 -10 -36 -10 -22 0 -29
-5 -29 -19 0 -10 -10 -41 -21 -69 -20 -48 -21 -55 -7 -97 16 -48 7 -63 -10
-17 -23 61 -32 121 -22 147 14 38 12 97 -6 120 -14 19 -15 19 -20 -3 -4 -12
-10 -22 -15 -22 -4 0 -9 -12 -11 -26 -3 -24 -7 -26 -48 -28 -83 -3 -160 -72
-160 -142 0 -78 60 -177 143 -236 40 -28 55 -43 46 -48 -7 -5 -19 -6 -27 -2
-17 6 -17 7 26 -63 20 -32 25 -54 27 -117 1 -42 -2 -75 -7 -72 -17 11 -39 -19
-33 -43 3 -12 -4 -50 -15 -83 -25 -73 -25 -94 0 -147 13 -31 26 -44 47 -49 15
-4 33 -11 39 -16 6 -4 20 -5 29 -1 16 5 17 3 10 -18 -4 -13 -8 -41 -8 -62 1
-31 -1 -36 -13 -26 -11 9 -14 8 -14 -6 0 -14 -3 -15 -15 -5 -8 7 -15 19 -15
26 0 22 -25 17 -59 -11 -39 -34 -51 -110 -26 -172 15 -38 15 -44 1 -72 -20
-38 -20 -72 -1 -118 23 -53 19 -70 -19 -88 -38 -18 -92 -66 -122 -109 l-21
-29 -42 77 c-217 396 -252 919 -90 1358 112 304 339 586 599 745 134 82 322
151 465 172 99 14 286 12 381 -4z m853 -1959 c57 -30 67 -125 17 -158 -22 -15
-63 -8 -84 15 -51 55 -31 142 36 156 2 1 15 -5 31 -13z"/>
<path d="M1423 4945 c-105 -32 -204 -124 -356 -330 -49 -66 -93 -122 -98 -124
-6 -2 -22 7 -36 20 -52 50 -66 108 -38 163 17 31 12 46 -13 46 -30 0 -61 -29
-73 -68 -21 -71 22 -161 96 -200 l33 -17 -46 -52 -47 -53 -48 30 c-82 52 -145
72 -227 74 -65 1 -81 -3 -122 -27 -54 -31 -74 -57 -89 -109 -31 -116 77 -209
223 -194 71 7 127 29 202 78 32 21 61 38 63 38 3 0 42 -33 87 -73 233 -211
365 -288 520 -302 51 -5 66 -3 94 14 31 20 61 65 50 76 -3 3 -19 0 -37 -6 -44
-16 -143 -6 -212 20 -87 33 -168 87 -294 196 -64 55 -126 108 -137 118 -21 17
-20 18 43 85 35 37 73 68 84 70 90 11 152 29 224 64 66 32 101 57 166 121 93
93 133 164 142 250 5 50 3 58 -20 81 -30 29 -67 33 -134 11z m105 -27 c46 -46
-48 -208 -193 -330 -80 -68 -173 -117 -236 -125 l-44 -6 26 34 c14 19 67 90
116 159 50 69 111 147 134 174 76 86 163 128 197 94z m-856 -547 c30 -18 72
-48 94 -67 l39 -34 -50 -45 c-99 -89 -197 -117 -275 -77 -62 31 -87 117 -55
186 39 81 148 97 247 37z"/>
<path d="M3640 4936 c-40 -12 -133 -100 -142 -134 -5 -19 -3 -22 13 -17 23 8
24 -6 3 -46 -14 -29 -14 -31 5 -36 11 -3 18 -10 15 -17 -5 -13 38 -39 66 -41
24 -2 50 14 50 31 0 9 -6 14 -13 11 -7 -3 -19 4 -26 15 -11 17 -9 23 8 42 11
11 23 33 26 48 7 26 39 47 53 33 3 -3 1 -16 -6 -28 -9 -15 -6 -14 10 6 13 15
29 27 36 27 10 0 10 5 2 20 -7 12 -25 22 -50 26 -22 4 -40 8 -40 11 0 2 7 15
16 29 21 31 18 33 -26 20z"/>
<path d="M3107 4676 c-58 -16 -94 -41 -125 -87 -32 -46 -11 -49 38 -5 36 32
70 47 70 30 0 -4 -13 -22 -30 -41 -32 -36 -39 -80 -15 -89 8 -3 30 4 50 16 19
12 47 23 62 25 14 1 34 13 43 25 14 19 20 21 39 11 28 -16 61 -5 61 20 0 12 7
19 20 19 32 0 36 29 7 57 -22 22 -36 26 -99 29 -42 2 -93 -2 -121 -10z"/>
<path d="M1490 4521 c-50 -15 -86 -40 -132 -89 -118 -126 -142 -283 -49 -322
38 -15 70 -8 110 26 22 18 31 21 31 11 0 -26 37 -50 67 -43 34 9 148 123 229
231 72 96 78 105 66 105 -6 0 -48 -49 -95 -108 -90 -114 -148 -172 -172 -172
-29 0 -14 39 46 130 49 73 59 94 48 101 -8 5 -17 9 -21 9 -3 0 -4 18 -1 39 5
33 1 44 -20 65 -27 27 -58 31 -107 17z m75 -64 c7 -26 -7 -67 -36 -109 -12
-16 -19 -35 -16 -42 7 -17 -90 -144 -126 -165 -96 -56 -71 144 34 264 64 72
133 97 144 52z"/>
<path d="M3357 4317 c-15 -29 -48 -76 -73 -104 -38 -44 -43 -56 -35 -72 14
-25 48 -36 65 -22 26 22 70 136 74 194 2 31 3 57 1 57 -2 0 -16 -24 -32 -53z"/>
<path d="M3787 4306 c-3 -7 -18 -17 -34 -20 -15 -4 -60 -23 -100 -42 -40 -19
-75 -34 -78 -34 -4 0 -21 -11 -38 -23 -31 -23 -94 -49 -149 -61 -19 -4 -28
-13 -28 -26 0 -22 29 -27 47 -9 8 8 25 1 62 -24 28 -20 65 -39 83 -42 17 -4
39 -17 49 -28 l17 -22 48 27 c44 24 49 30 49 61 0 19 7 43 16 53 25 30 31 54
13 54 -11 0 -14 6 -10 16 3 9 6 20 6 25 0 5 7 9 15 9 8 0 17 11 21 25 3 14 13
25 21 25 8 0 24 5 35 11 21 11 21 12 3 25 -24 18 -41 18 -48 0z"/>
<path d="M3673 3880 c-23 -17 -43 -36 -46 -43 -7 -19 57 -67 97 -74 28 -4 36
-1 45 16 7 12 9 36 6 54 -5 24 -2 37 10 47 13 10 13 15 3 21 -27 18 -74 9
-115 -21z"/>
<path d="M4261 3538 c-6 -18 -29 -62 -50 -98 l-39 -64 54 -52 c30 -29 54 -59
54 -68 0 -33 24 -26 72 20 58 57 168 191 168 205 0 5 -17 9 -38 9 -47 0 -142
31 -182 60 l-28 20 -11 -32z"/>
<path d="M1395 2990 c-358 -52 -786 -415 -870 -737 -20 -77 -19 -119 6 -173
43 -95 126 -153 219 -153 45 0 70 7 130 39 132 69 338 296 450 497 18 32 31
60 28 62 -2 2 -37 -34 -77 -81 -182 -211 -472 -431 -594 -451 -53 -8 -71 16
-64 93 17 218 349 607 645 755 181 91 340 102 394 27 55 -78 6 -231 -239 -748
-149 -314 -263 -617 -263 -700 0 -51 17 -84 68 -134 31 -29 44 -36 57 -29 15
9 15 11 1 22 -72 60 106 478 381 899 178 274 379 516 548 662 68 59 144 114
150 108 3 -2 -12 -31 -32 -63 -140 -233 -321 -649 -402 -926 -49 -168 -63
-247 -65 -354 -1 -86 2 -107 22 -147 31 -63 91 -121 159 -155 179 -87 376 37
532 335 17 34 28 62 24 62 -5 0 -36 -32 -68 -72 -104 -124 -281 -261 -381
-293 -46 -15 -55 -15 -87 -1 -88 36 -95 160 -26 444 74 302 274 783 413 990
54 81 55 84 41 111 -22 44 -64 90 -98 107 -41 22 -80 12 -143 -36 -111 -87
-415 -418 -538 -588 -37 -52 -62 -67 -33 -20 8 12 37 77 63 143 59 147 63 208
22 296 -70 151 -215 232 -373 209z"/>
<path d="M4953 2940 c-98 -50 -247 -201 -350 -355 -137 -205 -352 -469 -369
-452 -19 19 83 264 192 459 63 113 65 118 50 146 -15 29 -99 112 -114 112 -48
0 -271 -267 -404 -482 -33 -54 -61 -98 -63 -98 -2 0 36 84 85 186 101 212 100
205 21 277 -48 43 -60 46 -54 13 6 -31 -18 -106 -72 -221 -65 -138 -360 -525
-401 -525 -30 0 78 260 197 473 l60 109 -21 33 c-23 37 -94 105 -111 105 -46
0 -246 -235 -380 -446 -35 -56 -70 -110 -76 -120 -18 -27 25 71 96 217 34 70
61 136 61 146 0 32 -79 123 -107 123 -4 0 -8 -17 -9 -38 0 -20 -11 -65 -23
-99 -25 -68 -27 -69 -129 -79 l-59 -7 -12 33 c-24 70 -103 140 -159 140 -58 0
-306 -212 -390 -333 -84 -123 -142 -263 -142 -345 0 -51 35 -116 78 -145 112
-76 212 -56 340 67 142 136 265 350 287 501 6 38 11 46 34 51 14 3 42 10 61
15 19 5 38 9 42 9 9 0 -5 -33 -87 -210 -70 -152 -100 -240 -91 -273 7 -29 75
-109 88 -105 6 2 11 20 13 41 3 57 187 359 330 542 63 80 213 231 221 222 3
-3 -22 -59 -55 -125 -120 -239 -201 -436 -201 -487 0 -60 110 -152 148 -124
40 30 116 128 209 269 35 52 63 92 63 89 0 -4 -11 -31 -24 -61 -36 -82 -42
-123 -21 -156 46 -72 102 -108 89 -57 -4 18 7 50 46 122 67 125 234 375 317
475 65 79 183 192 191 184 2 -3 -23 -58 -56 -123 -74 -146 -176 -382 -194
-446 -12 -45 -11 -52 8 -85 12 -21 40 -50 62 -66 35 -25 45 -28 65 -19 25 12
113 117 186 224 43 63 43 64 37 26 -10 -53 21 -118 75 -156 63 -47 81 -42 161
40 67 69 226 269 283 357 45 68 40 42 -11 -59 -71 -143 -77 -164 -57 -206 19
-41 86 -93 119 -93 27 0 89 68 182 202 107 154 230 363 219 374 -2 3 -39 -44
-82 -103 -140 -194 -296 -375 -311 -360 -11 11 29 111 102 254 l72 143 -24 36
-25 37 24 26 c45 48 49 64 24 112 -32 63 -65 83 -145 87 -53 2 -76 -1 -109
-18z m195 -42 c15 -15 15 -75 1 -117 -8 -23 -15 -29 -22 -22 -19 19 -34 12
-40 -17 -9 -46 -99 -169 -214 -293 -164 -177 -284 -282 -300 -265 -21 21 87
239 200 405 86 126 213 259 282 294 56 29 76 32 93 15z m-2286 -365 c13 -12
18 -30 18 -70 l0 -53 -42 0 c-66 0 -93 19 -91 60 3 62 73 101 115 63z m-7
-200 c-11 -47 -84 -183 -150 -283 -117 -176 -256 -303 -302 -274 -80 50 66
393 229 539 l50 45 90 0 90 0 -7 -27z"/>
</g>
</svg>
